<?xml version="1.0" encoding="utf-8"?>
<!-- Generator: Adobe Illustrator 23.1.0, SVG Export Plug-In . SVG Version: 6.00 Build 0)  -->
<svg version="1.1" id="Layer_1" xmlns:shaper="http://www.shapertools.com/namespaces/shaper"
	 xmlns="http://www.w3.org/2000/svg" xmlns:xlink="http://www.w3.org/1999/xlink" x="0px" y="0px" viewBox="0 0 312 237"
	 style="enable-background:new 0 0 312 237;" xml:space="preserve">
<style type="text/css">
	.st0{fill:none;stroke:#000000;stroke-miterlimit:10;}
</style>
<path vector-effect="non-scaling-stroke" shaper:cutDepth="0.005" shaper:pathType="exterior" class="st0" d="M146.1,210.9
	c-1.4,2.9-4.4,4.8-7.7,4.8H94.6l0,0l-0.5,0l-0.5,0l-0.5,0l-0.5-0.1l-0.5-0.1l-0.5-0.1l-0.5-0.1l-0.5-0.1l-0.5-0.1l-0.5-0.2l-0.5-0.2
	l-0.5-0.2l-0.5-0.2l-0.4-0.2l-0.4-0.2l-0.4-0.3l-0.4-0.3l-0.4-0.3l-0.4-0.3l-0.4-0.3L85,212l-0.4-0.3l-0.4-0.4l-0.3-0.4l-0.3-0.4
	l-0.3-0.4l-0.3-0.4l-0.3-0.4l-0.3-0.4l-0.3-0.4l-0.2-0.4l-0.2-0.4l-0.2-0.5l-0.2-0.5l-0.2-0.5l-0.2-0.5l-0.1-0.5l-0.1-0.5l-0.1-0.5
	l-0.1-0.5l-0.1-0.5l-0.1-0.5l0-0.5l0-0.5l0-0.5l0-0.5l0-0.5l0-0.5l0.1-0.5l0.1-0.5l0.1-0.5l0.1-0.5l0.1-0.5l0.2-0.5l0.2-0.5l0.2-0.5
	l0.2-0.5l0.2-0.4l0.2-0.4l0.2-0.4l0.3-0.4l0.3-0.4l0.3-0.4l0.3-0.4l0,0l1.1-1.2l1.1-1.3l1.1-1.3l1.1-1.4l1.1-1.4l1.1-1.4l1.1-1.4
	l1.1-1.4l1.1-1.5l1.1-1.5l1.1-1.5l1.1-1.5l1.1-1.5l1.1-1.5l1.1-1.6l1.1-1.6l2.2-3.2l2.2-3.3l2.2-3.3l2.1-3.4l2.1-3.5l2.1-3.5
	l2.1-3.6l2.1-3.7l2.1-3.7l2.1-3.8l2.1-3.8l2.1-3.9l2.1-3.9l2.1-4l2.1-4l2.1-4.1l2.1-4.2l2.1-4.2l2.1-4.3l2.1-4.3l2.1-4.4l2.1-4.4
	l2.1-4.5l2.1-4.5l0,0l1.3-2.8l1.3-2.8c-24.7-3.3-42-26-38.7-50.7c0.7-5.2,2.3-10.2,4.7-14.9c0.6-1.1,0.6-2.3,0.2-3.4
	c-2-1.2-4.6-0.6-5.8,1.4c-0.1,0.1-0.1,0.2-0.2,0.3c-12,24.3-2.9,53.8,20.8,67.1l0,0l0.3,0.2l0.3,0.2l0.3,0.2l0.3,0.3l0.3,0.3
	l0.3,0.3l0.3,0.3l0.3,0.3l0.2,0.3l0.2,0.3l0.2,0.3l0.2,0.4l0.2,0.4l0.2,0.4l0.1,0.4l0.1,0.4l0.1,0.4l0.1,0.4l0.1,0.4l0.1,0.4l0,0.4
	l0,0.4l0,0.4l0,0.4l0,0.4l-0.1,0.4l-0.1,0.4l-0.1,0.4l-0.1,0.4l-0.1,0.4l-0.2,0.4l-0.2,0.4l0,0l-1.7,3.5l-1.7,3.5l-1.7,3.4l-1.7,3.4
	l-1.7,3.4l-1.7,3.3l-1.7,3.3l-1.7,3.3l-1.7,3.2l-1.7,3.2l-1.7,3.2l-1.7,3.1l-1.7,3.1l-1.7,3.1l-1.7,3l-1.7,3l-1.7,2.9l-1.7,2.9
	l-1.7,2.9l-1.7,2.8l-1.7,2.8l-1.7,2.7l-1.7,2.7l-1.7,2.7l-1.7,2.6l-1.7,2.6l-1.7,2.5l-1.7,2.5l-1.6,2.4l-1.6,2.4l-1.6,2.3l-1.6,2.3
	l-1.6,2.2l-1.6,2.2l-1.6,2.1l-1.6,2.1l-1.6,2l-1.6,2l-1.6,1.9l-1.6,2l-1.6,1.9l-1.6,1.8l-1.5,1.8l-1.5,1.7l-1.5,1.6l-1.5,1.6
	l-1.5,1.5l-1.5,1.5l-1.5,1.4l-1.5,1.4l-1.5,1.3l-1.5,1.2l-1.5,1.2l-1.5,1.1l-1.5,1.1l-1.5,1l-1.5,1l-1.5,0.9l-1.5,0.8l-1.5,0.8
	l-1.5,0.7l-1.5,0.7l-1.5,0.6l-1.5,0.6l0,0l-1.5,0.5l-1.5,0.4l-1.5,0.4l-1.5,0.3l-1.5,0.3l-1.5,0.2l-1.5,0.2l-1.5,0.1l-1.5,0.1
	l-1.5,0l-1.4-0.1l-1.4-0.1l-1.4-0.2l-1.4-0.2l-1.4-0.3l-1.4-0.3c-3.6-2.4-8.5-1.4-10.9,2.2c-2.4,3.6-1.4,8.5,2.2,10.9
	c1.3,0.8,2.8,1.3,4.3,1.3H15c1.4-0.3,2.8-0.6,4.2-1l0,0l2-0.3l2-0.4l2-0.5l2-0.5c38-8,76.6-12.3,115.4-12.9c2.2,0,4.3,0.8,6,2.3
	c4.3,4,10.9,4,15.2,0c1.6-1.5,3.7-2.3,6-2.3c39,0.6,77.9,5,116,13.1l0,0l1.6,0.4l1.6,0.4l1.6,0.3l1.6,0.3c1.6,0.4,3.2,0.7,4.7,1.1
	h7.4c4.3,0,7.8-3.5,7.8-7.8s-3.5-7.8-7.8-7.8c-1.5,0-3,0.4-4.3,1.3l0,0l-1.4,0.3l-1.4,0.3l-1.4,0.2l-1.4,0.2l-1.4,0.1l-1.4,0.1
	l-1.5,0l-1.5-0.1l-1.5-0.1l-1.5-0.2l-1.5-0.2l-1.5-0.3l-1.5-0.3l-1.5-0.4l-1.5-0.4l-1.5-0.5l0,0l-1.5-0.6l-1.5-0.6l-1.5-0.7
	l-1.5-0.7l-1.5-0.8l-1.5-0.8l-1.5-0.9l-1.5-1l-1.5-1l-1.5-1.1l-1.5-1.1l-1.5-1.2l-1.5-1.2l-1.5-1.3L254,207l-1.5-1.4l-1.5-1.5
	l-1.5-1.5l-1.5-1.6l-1.5-1.6l-1.5-1.7l-1.5-1.8l-1.6-1.8l-1.6-1.9l-1.5-2.1l-1.6-2l-1.6-2l-1.6-2l-1.6-2.1l-1.6-2.1l-1.6-2.2
	l-1.6-2.2l-1.6-2.3l-1.6-2.3l-1.6-2.4l-1.6-2.4l-1.7-2.5l-1.7-2.5l-1.7-2.6l-1.7-2.6l-1.7-2.7l-1.7-2.7l-1.7-2.7l-1.7-2.8l-1.7-2.8
	l-1.7-2.9l-1.7-2.9l-1.7-2.9l-1.7-3l-1.7-3l-1.7-3.1l-1.7-3.1l-1.7-3.1l-1.7-3.2l-1.7-3.2l-1.7-3.2l-1.7-3.3l-1.7-3.3l-1.7-3.3
	l-1.7-3.4l-1.7-3.4l-1.7-3.4l-1.7-3.5l-1.7-3.5l0,0l-0.2-0.4l-0.2-0.4l-0.1-0.4l-0.1-0.4l-0.1-0.4l-0.1-0.4l-0.1-0.4l0-0.4l0-0.4
	l0-0.4l0-0.4l0-0.4l0.1-0.4l0.1-0.4l0.1-0.4l0.1-0.4l0.1-0.4l0.1-0.4l0.2-0.4l0.2-0.4l0.2-0.4l0.2-0.3l0.2-0.3l0.2-0.3l0.3-0.3
	l0.3-0.3l0.3-0.3l0.3-0.3l0.3-0.3l0.3-0.2l0.3-0.2l0.3-0.2c23.7-13.3,32.8-42.8,20.8-67.1c-1-2.1-3.6-3-5.7-1.9
	c-0.1,0.1-0.2,0.1-0.3,0.2c-0.4,1.1-0.3,2.4,0.2,3.4c11.5,22.1,3,49.3-19,60.8c-4.6,2.4-9.7,4-14.9,4.7l0,0l1.3,2.8l1.3,2.8l0,0
	l2.1,4.5l2.1,4.5l2.1,4.4l2.1,4.4l2.1,4.3l2.1,4.3l2.1,4.2l2.1,4.2l2.1,4.1l2.1,4l2.1,4l2.1,3.9l2.1,3.9l2.1,3.8l2.1,3.8l2.1,3.7
	l2.1,3.7l2.1,3.6l2.1,3.5l2.1,3.5l2.1,3.4l2.2,3.3l2.2,3.3l2.2,3.2l1.1,1.6l1.1,1.6l1.1,1.5l1.1,1.5l1.1,1.5l1.1,1.5l1.1,1.5
	l1.1,1.5l1.1,1.4l1.1,1.4l1.1,1.4l1.1,1.4l1.1,1.4l1.1,1.3l1,1.3l1.1,1.3l0,0l0.3,0.4l0.3,0.4l0.3,0.4l0.3,0.4l0.2,0.4l0.2,0.4
	l0.2,0.4l0.2,0.5l0.2,0.5l0.2,0.5l0.2,0.5l0.1,0.5l0.1,0.5l0.1,0.5l0.1,0.5l0.1,0.5l0,0.5l0,0.5l0,0.5l0,0.5l0,0.5l0,0.5l-0.1,0.5
	l-0.1,0.5l-0.1,0.5l-0.1,0.5l-0.1,0.5l-0.1,0.5l-0.2,0.5l-0.2,0.5l-0.2,0.5l-0.2,0.5l-0.2,0.4l-0.2,0.4l-0.3,0.4l-0.3,0.4l-0.3,0.4
	l-0.3,0.4l-0.3,0.4l-0.3,0.4l-0.3,0.4l-0.3,0.4L227,212l-0.4,0.3l-0.4,0.3l-0.4,0.3l-0.4,0.3l-0.4,0.3l-0.4,0.3l-0.4,0.2l-0.4,0.2
	l-0.5,0.2l-0.5,0.2l-0.5,0.2l-0.5,0.2l-0.5,0.1l-0.5,0.1l-0.5,0.1l-0.5,0.1l-0.5,0.1l-0.5,0.1l-0.5,0l-0.5,0l-0.5,0h-43.8
	c-3.3,0-6.2-1.9-7.7-4.8c-2.7-5.5-9.3-7.8-14.8-5.1C149,206.8,147.1,208.6,146.1,210.9z"/>
<path vector-effect="non-scaling-stroke" shaper:cutDepth="0.005" shaper:pathType="interior" class="st0" d="M70,212.8L70,212.8
	l0.1,0.2l0.1,0.2l0.1,0.2l0.1,0.3l0.1,0.3l0.1,0.3l0.1,0.3l0,0.3l0,0.3l0,0.3l0,0.3l0,0.3l-0.1,0.3l-0.1,0.3l-0.1,0.3l-0.1,0.3
	l-0.1,0.2l-0.1,0.2l-0.1,0.2l-0.2,0.2l-0.2,0.2l-0.2,0.2l-0.2,0.2l-0.2,0.2l-0.2,0.2l-0.2,0.1l-0.2,0.1l-0.2,0.1l-0.3,0.1l-0.3,0.1
	l-0.3,0.1l-0.3,0c-6.6,0.9-13.3,2-19.9,3.1l0,0l1.1-0.5l1.1-0.5l1.1-0.6l1.1-0.6l1.1-0.6l1.1-0.6l1.1-0.6l1.1-0.7l1-0.7l1-0.7l1-0.7
	l1-0.7l1-0.7l1-0.8l1-0.8l1-0.8l0,0l0.3-0.2l0.4-0.2l0.4-0.2l0.4-0.1l0.4-0.1l0.4,0l0.4,0l0.4,0l0.4,0.1l0.4,0.1l0.4,0.2l0.4,0.2
	l0.4,0.2l0.3,0.3l0.3,0.3L70,212.8z"/>
<path vector-effect="non-scaling-stroke" shaper:cutDepth="0.005" shaper:pathType="interior" class="st0" d="M244.9,219.4
	L244.9,219.4l-0.3,0l-0.3-0.1l-0.3-0.1l-0.3-0.1l-0.2-0.1l-0.2-0.1l-0.2-0.1l-0.2-0.2l-0.2-0.2l-0.2-0.2l-0.2-0.2l-0.2-0.2l-0.2-0.2
	l-0.1-0.2l-0.1-0.2l-0.1-0.2l-0.1-0.3l-0.1-0.3l-0.1-0.3l-0.1-0.3l0-0.3l0-0.3l0-0.3l0-0.3l0-0.3l0.1-0.3l0.1-0.3l0.1-0.3l0.1-0.3
	l0.1-0.2l0.1-0.2l0.1-0.2l0,0l0.3-0.3l0.3-0.3l0.3-0.3l0.4-0.2l0.4-0.2l0.4-0.2l0.4-0.1l0.4-0.1l0.4,0l0.4,0l0.4,0l0.4,0.1l0.4,0.1
	l0.4,0.2l0.4,0.2l0.3,0.2l0,0l1,0.8l1,0.8l1,0.8l1,0.7l1,0.7l1,0.7l1.1,0.7l1.1,0.7l1.1,0.7l1.1,0.6l1.1,0.6l1.1,0.6l1.1,0.6
	l1.1,0.6l1.1,0.5l1.1,0.5C258.2,221.4,251.6,220.3,244.9,219.4z"/>
<path vector-effect="non-scaling-stroke" shaper:cutDepth="0.005" shaper:pathType="interior" class="st0" d="M150.6,215.7
	c0,3,2.4,5.4,5.4,5.4c3,0,5.4-2.4,5.4-5.4c0-3-2.4-5.4-5.4-5.4C153,210.3,150.6,212.7,150.6,215.7
	C150.6,215.7,150.6,215.7,150.6,215.7z"/>
</svg>
